<?xml version="1.0" encoding="UTF-8"?>
<svg width="39px" height="39px" viewBox="0 0 39 39" version="1.1" xmlns="http://www.w3.org/2000/svg" xmlns:xlink="http://www.w3.org/1999/xlink">
    <!-- Generator: Sketch 45.1 (43504) - http://www.bohemiancoding.com/sketch -->
    <title>Fill 1</title>
    <desc>Created with Sketch.</desc>
    <defs></defs>
    <g id="Page-1" stroke="none" stroke-width="1" fill="none" fill-rule="evenodd">
        <g id="Projects" transform="translate(-95.000000, -58.000000)" fill="#FFFFFF">
            <g id="NAV" transform="translate(95.000000, 58.000000)">
                <g id="Logo">
                    <path d="M23.6238349,15.3901372 C24.6761059,15.516038 25.6698399,15.5634251 26.6510304,15.3083713 C27.9964505,14.9599372 28.8345507,14.1106872 29.0556902,12.7229903 C29.1314165,12.2477262 29.1565038,11.753879 29.1225895,11.2748982 C29.0087677,9.68139295 27.9899464,8.52180428 26.4201347,8.30716887 C25.6247758,8.19845743 24.8020067,8.29927103 23.9917813,8.28951488 C23.6809781,8.28579825 23.6168662,8.4335343 23.6191891,8.71088785 C23.6294099,9.93830502 23.6238349,11.1666514 23.6238349,12.3940685 L23.6238349,15.3901372 Z M18.4855934,4.38333636 C13.3524623,4.88833351 9.34268273,7.20844002 6.62768425,11.5671183 C4.11152549,15.6070955 3.76030392,19.9402219 5.23441244,24.439203 C5.83418367,21.2875004 7.17588723,18.5659978 9.74036218,16.559482 C12.3094829,14.5497142 15.2721019,13.90906 18.4855934,14.185949 L18.4855934,4.38333636 Z M18.5032474,19.6438207 C18.270958,19.6108356 18.0888431,19.575063 17.9053345,19.5597319 C15.2279669,19.3325529 12.5496702,20.2812228 11.2562828,23.1922735 C10.6040142,24.6626654 10.4553489,26.2203981 10.5649895,27.8036826 C10.6713781,29.3521237 11.0741679,30.8136886 12.0390981,32.0680514 C12.4953144,32.6613185 13.017501,33.171426 13.7394565,33.4585357 C17.0542262,34.7709708 20.4266036,34.9702751 23.8431161,33.9477372 C31.1541926,31.7595711 35.6410946,24.5702142 34.4304023,17.0101235 C34.3202971,16.3248697 34.1279615,15.6535534 33.9737213,14.9752683 C33.0185473,17.4997895 31.3414179,19.1797064 28.8136447,19.9927193 C27.2791409,20.486102 25.7005021,20.5260558 24.1111781,20.4340692 C23.9615837,20.4247776 23.8105956,20.4326754 23.6075747,20.4326754 L23.6075747,27.8036826 L18.5032474,27.8036826 L18.5032474,19.6438207 Z M19.5034856,0.0005 C30.3002968,0.000964578796 39.0027868,8.73132931 38.9999993,19.5560153 C38.9972119,30.2478317 30.2236413,38.9647236 19.4756109,38.955432 C8.68344542,38.946605 -0.00603637798,30.2111299 3.14636596e-06,19.377617 C0.00650724951,8.71228158 8.7758966,3.54212041e-05 19.5034856,0.0005 L19.5034856,0.0005 Z" id="Fill-1"></path>
                </g>
            </g>
        </g>
    </g>
</svg>